<svg width="40" height="40" viewBox="0 0 40 40" fill="none" xmlns="http://www.w3.org/2000/svg">
<rect width="40" height="40" rx="4" fill="white"/>
<path d="M5.34187 1.0005C5.40973 1.00033 5.47759 1.00017 5.54751 1C5.62248 1.00024 5.69745 1.00048 5.7747 1.00073C5.85401 1.00066 5.93333 1.00059 6.01504 1.00051C6.28249 1.00038 6.54994 1.00083 6.81739 1.00128C7.00844 1.00131 7.19948 1.00129 7.39053 1.00125C7.85654 1.00123 8.32255 1.00158 8.78856 1.00211C9.33067 1.0027 9.87278 1.00282 10.4149 1.00291C11.3817 1.00309 12.3485 1.00364 13.3153 1.00442C14.2546 1.00518 15.194 1.00576 16.1333 1.00611C16.1912 1.00614 16.249 1.00616 16.3087 1.00618C16.599 1.00629 16.8893 1.00639 17.1796 1.00649C19.5892 1.00735 21.9988 1.00881 24.4084 1.01064C24.4088 1.09423 24.4088 1.09423 24.4093 1.1795C24.4126 1.76011 24.4182 2.34067 24.4251 2.92125C24.4273 3.13785 24.429 3.35445 24.4302 3.57106C24.4319 3.88264 24.4357 4.19414 24.4398 4.5057C24.44 4.65069 24.44 4.65069 24.4401 4.7986C24.4492 5.31811 24.4659 5.64803 24.8106 6.04095C25.1249 6.324 25.3887 6.38086 25.8 6.38774C25.887 6.38939 25.9739 6.39103 26.0635 6.39273C26.2042 6.39479 26.2042 6.39479 26.3477 6.3969C26.4919 6.39947 26.4919 6.39947 26.6389 6.4021C26.9463 6.40749 27.2537 6.41235 27.5611 6.4172C27.7693 6.42076 27.9775 6.42435 28.1857 6.42799C28.6966 6.43682 29.2074 6.44522 29.7183 6.45327C29.9285 7.30702 30.06 8.15895 30.1356 9.03543C30.1413 9.10111 30.147 9.16679 30.1529 9.23445C30.2846 10.9659 29.9638 12.3167 28.8705 13.6668C28.0953 14.5829 27.2534 15.4291 26.3895 16.2562C26.3498 16.2943 26.3101 16.3324 26.2691 16.3716C25.3596 17.2425 24.4346 18.0952 23.4845 18.9194C23.3999 18.9933 23.3999 18.9933 23.3135 19.0686C23.2644 19.111 23.2153 19.1534 23.1648 19.1972C23.0214 19.3275 23.0214 19.3275 22.8798 19.5651C22.6533 19.5961 22.6533 19.5961 22.3581 19.5963C22.3039 19.5967 22.2497 19.597 22.1939 19.5974C22.0115 19.5984 21.8292 19.5976 21.6468 19.5968C21.5163 19.5971 21.3859 19.5976 21.2555 19.5981C20.9742 19.5991 20.693 19.5993 20.4117 19.5989C19.9672 19.5984 19.5228 19.5997 19.0783 19.6013C18.1347 19.6044 17.1911 19.6055 16.2474 19.6063C15.2292 19.6072 14.2109 19.6085 13.1926 19.6121C12.7505 19.6136 12.3084 19.614 11.8662 19.6134C11.5914 19.6132 11.3167 19.6141 11.0419 19.6153C10.9142 19.6156 10.7865 19.6155 10.6588 19.615C10.4848 19.6143 10.3109 19.6151 10.137 19.6163C10.0395 19.6164 9.94205 19.6164 9.84163 19.6165C9.60672 19.6281 9.60672 19.6281 9.45272 19.7577C9.31484 19.9703 9.33847 20.1414 9.36371 20.3897C9.50227 20.6576 9.50227 20.6576 9.76597 20.7196C9.93636 20.7281 10.107 20.7316 10.2776 20.7326C10.3297 20.733 10.3818 20.7334 10.4355 20.7338C10.6104 20.7351 10.7853 20.7358 10.9603 20.7365C11.0855 20.7373 11.2108 20.7381 11.3361 20.739C11.6765 20.7412 12.0169 20.7429 12.3573 20.7446C12.7129 20.7464 13.0685 20.7486 13.4241 20.7508C14.0977 20.755 14.7713 20.7587 15.4449 20.7622C16.2116 20.7663 16.9784 20.7708 17.7452 20.7754C19.3226 20.7848 20.9001 20.7935 22.4775 20.802C22.212 21.8633 21.9465 22.9247 21.673 24.0181C21.3087 24.0193 20.9444 24.0205 20.569 24.0218C19.3677 24.0259 18.1664 24.0314 16.9651 24.0376C16.2365 24.0413 15.5079 24.0445 14.7792 24.0467C14.1443 24.0486 13.5094 24.0513 12.8744 24.0551C12.5381 24.0571 12.2018 24.0586 11.8655 24.0592C11.5491 24.0597 11.2328 24.0613 10.9164 24.0638C10.8001 24.0646 10.6839 24.0649 10.5676 24.0647C10.4091 24.0646 10.2507 24.0661 10.0922 24.0677C10.0035 24.0681 9.9147 24.0685 9.82324 24.0689C9.60448 24.083 9.60448 24.083 9.45551 24.2109C9.31366 24.4227 9.33833 24.593 9.36371 24.8428C9.50227 25.1107 9.50227 25.1107 9.76597 25.1726C9.93684 25.181 10.108 25.1843 10.279 25.1851C10.3313 25.1855 10.3836 25.1858 10.4374 25.1862C10.6129 25.1872 10.7883 25.1877 10.9638 25.1882C11.0895 25.1889 11.2152 25.1896 11.3408 25.1903C11.6116 25.1918 11.8824 25.193 12.1531 25.1941C12.5811 25.1958 13.009 25.198 13.4369 25.2004C14.3453 25.2054 15.2536 25.2097 16.162 25.2139C17.1425 25.2184 18.1231 25.2231 19.1036 25.2285C19.5292 25.2308 19.9549 25.2328 20.3805 25.2344C20.645 25.2355 20.9095 25.237 21.174 25.2385C21.2969 25.2391 21.4198 25.2396 21.5427 25.24C21.7101 25.2405 21.8775 25.2415 22.0449 25.2426C22.1387 25.243 22.2325 25.2434 22.3292 25.2439C22.558 25.2551 22.558 25.2551 22.7993 25.3376C23.5148 25.3995 24.3866 25.3722 25.0243 25.0177C25.3713 24.829 25.7245 24.7413 26.1046 24.6465C26.9818 24.4259 27.5904 24.2377 28.1897 23.5233C28.3765 23.3275 28.566 23.1344 28.7558 22.9415C28.8902 22.8048 29.0239 22.6673 29.157 22.5292C29.2178 22.4659 29.2787 22.4027 29.3415 22.3376C29.3966 22.2801 29.4517 22.2227 29.5085 22.1635C29.6378 22.039 29.6378 22.039 29.7183 22.039C29.722 23.5722 29.7249 25.1055 29.7266 26.6388C29.7274 27.3507 29.7286 28.0626 29.7304 28.7744C29.732 29.3948 29.733 30.0152 29.7334 30.6355C29.7336 30.9641 29.7341 31.2927 29.7353 31.6213C29.7364 31.9304 29.7367 32.2395 29.7365 32.5486C29.7365 32.6622 29.7368 32.7758 29.7374 32.8894C29.7382 33.0443 29.738 33.1991 29.7376 33.3539C29.7378 33.484 29.7378 33.484 29.7381 33.6167C29.7183 33.8314 29.7183 33.8314 29.5574 34.0787C29.3172 34.1608 29.1597 34.1717 28.909 34.1721C28.8244 34.1724 28.7397 34.1727 28.6525 34.173C28.5592 34.1729 28.4659 34.1729 28.3698 34.1728C28.2215 34.1732 28.2215 34.1732 28.0702 34.1735C27.7953 34.1741 27.5203 34.1743 27.2454 34.1744C26.9491 34.1746 26.6528 34.1752 26.3564 34.1757C25.7083 34.1769 25.0602 34.1774 24.4121 34.1777C24.0077 34.1779 23.6032 34.1783 23.1987 34.1787C22.0793 34.1797 20.96 34.1805 19.8406 34.1808C19.769 34.1808 19.6973 34.1808 19.6235 34.1809C19.5517 34.1809 19.4798 34.1809 19.4058 34.1809C19.2603 34.1809 19.1147 34.181 18.9692 34.181C18.897 34.181 18.8248 34.1811 18.7504 34.1811C17.5798 34.1814 16.4092 34.1828 15.2386 34.1848C14.0374 34.1867 12.8363 34.1877 11.6352 34.1878C10.9605 34.1879 10.2858 34.1884 9.61112 34.1899C9.03677 34.1912 8.46243 34.1916 7.88808 34.1909C7.5949 34.1906 7.30174 34.1907 7.00857 34.1918C6.69109 34.193 6.37362 34.1924 6.05613 34.1915C5.91645 34.1925 5.91645 34.1925 5.77394 34.1935C5.6891 34.193 5.60425 34.1924 5.51683 34.1919C5.44352 34.1919 5.37021 34.192 5.29468 34.192C5.05635 34.1544 4.9484 34.0874 4.7779 33.9138C4.665 33.6365 4.68728 33.3404 4.6871 33.0435C4.68696 32.9891 4.68682 32.9347 4.68667 32.8786C4.6863 32.6955 4.6865 32.5124 4.68669 32.3292C4.68654 32.1969 4.68636 32.0646 4.68614 31.9323C4.68565 31.5681 4.68566 31.2039 4.68575 30.8397C4.68577 30.4472 4.68533 30.0546 4.68495 29.6621C4.68428 28.8928 4.68406 28.1236 4.68401 27.3543C4.68397 26.7292 4.68381 26.1042 4.68355 25.4791C4.68284 23.708 4.68247 21.9369 4.68253 20.1658C4.68254 20.0702 4.68254 19.9747 4.68254 19.8763C4.68255 19.7807 4.68255 19.685 4.68255 19.5865C4.68259 18.0358 4.68182 16.4851 4.68068 14.9345C4.67953 13.3433 4.67897 11.7521 4.67904 10.161C4.67907 9.26724 4.67884 8.3735 4.67798 7.47975C4.67725 6.71894 4.67707 5.95812 4.67762 5.1973C4.67788 4.80894 4.67788 4.42059 4.67719 4.03223C4.67656 3.67693 4.67667 3.32164 4.67737 2.96634C4.6775 2.8376 4.67735 2.70885 4.6769 2.58011C4.67633 2.40547 4.67676 2.23086 4.67743 2.05623C4.67741 1.95911 4.67739 1.862 4.67737 1.76195C4.69761 1.50342 4.74245 1.32281 4.85836 1.09311C5.04093 0.999539 5.13923 1.00039 5.34187 1.0005ZM9.28326 6.53574C9.22452 6.85017 9.25163 6.98081 9.42245 7.2493C9.77091 7.58412 10.2756 7.49848 10.7218 7.49358C10.8798 7.49427 10.8798 7.49427 11.0411 7.49497C11.3295 7.49614 11.6178 7.49473 11.9062 7.4928C12.2083 7.49114 12.5104 7.49162 12.8124 7.49182C13.3197 7.49181 13.8269 7.49018 14.3341 7.48754C14.9203 7.4845 15.5063 7.48377 16.0925 7.48435C16.6567 7.48487 17.2209 7.48398 17.7852 7.48237C18.0251 7.4817 18.265 7.48147 18.505 7.4816C18.8401 7.48169 19.1752 7.47969 19.5103 7.47747C19.6596 7.47783 19.6596 7.47783 19.8118 7.4782C19.9488 7.4768 19.9488 7.4768 20.0886 7.47537C20.2074 7.47491 20.2074 7.47491 20.3286 7.47444C20.5893 7.43666 20.7402 7.35862 20.9489 7.19545C21.0498 6.91823 21.0498 6.91823 21.0294 6.6182C20.9038 6.38833 20.9038 6.38833 20.7076 6.20588C20.4919 6.14453 20.4919 6.14453 20.2495 6.15408C20.1094 6.15251 20.1094 6.15251 19.9665 6.15092C19.8133 6.15236 19.8133 6.15236 19.6569 6.15384C19.548 6.15342 19.4391 6.15281 19.3302 6.15205C19.0347 6.15052 18.7392 6.15159 18.4436 6.15321C18.1343 6.15456 17.825 6.15384 17.5157 6.15342C16.9963 6.15304 16.4769 6.15435 15.9575 6.15666C15.3569 6.1593 14.7565 6.1593 14.156 6.15788C13.5783 6.15657 13.0006 6.15712 12.4229 6.15853C12.1771 6.1591 11.9312 6.15901 11.6854 6.1584C11.3959 6.15777 11.1064 6.15877 10.8169 6.16103C10.66 6.16187 10.503 6.16109 10.3461 6.16026C10.206 6.16184 10.206 6.16184 10.0631 6.16344C9.98194 6.16367 9.90078 6.1639 9.81716 6.16414C9.54651 6.21741 9.45093 6.31556 9.28326 6.53574ZM9.40863 10.8113C9.26644 10.9862 9.26644 10.9862 9.238 11.231C9.29955 11.5745 9.42093 11.6797 9.68552 11.8959C9.90812 11.9361 10.081 11.9508 10.3029 11.9466C10.3952 11.9473 10.3952 11.9473 10.4894 11.948C10.6954 11.9491 10.9012 11.9472 11.1071 11.9453C11.2549 11.9455 11.4027 11.9458 11.5504 11.9463C11.9515 11.9471 12.3526 11.9454 12.7537 11.9431C13.1732 11.9412 13.5928 11.9414 14.0124 11.9414C14.7169 11.941 15.4214 11.9391 16.126 11.9361C16.9409 11.9326 17.7557 11.9312 18.5706 11.9309C19.4378 11.9306 20.3049 11.9291 21.172 11.927C21.4221 11.9265 21.6722 11.9262 21.9222 11.9259C22.315 11.9255 22.7077 11.9241 23.1004 11.9221C23.2446 11.9215 23.3889 11.9212 23.5332 11.9211C23.7298 11.921 23.9264 11.9199 24.123 11.9185C24.1804 11.9187 24.2377 11.9189 24.2968 11.9191C24.5876 11.9159 24.8079 11.9007 25.052 11.731C25.2054 11.5213 25.2134 11.413 25.2028 11.1486C25.1182 10.8573 25.067 10.8044 24.8106 10.6589C24.5996 10.635 24.4078 10.6252 24.1968 10.627C24.1036 10.6263 24.1036 10.6263 24.0085 10.6256C23.8001 10.6244 23.5918 10.625 23.3834 10.6256C23.2341 10.6252 23.0847 10.6246 22.9354 10.6239C22.5296 10.6224 22.1239 10.6225 21.7182 10.623C21.3797 10.6233 21.0412 10.6227 20.7027 10.6223C19.9043 10.6211 19.1059 10.6212 18.3075 10.6222C17.4833 10.6231 16.659 10.6219 15.8348 10.6197C15.1275 10.6179 14.4203 10.6174 13.7131 10.6178C13.2905 10.6181 12.8679 10.6179 12.4453 10.6165C12.048 10.6152 11.6508 10.6156 11.2535 10.6171C11.1075 10.6174 10.9616 10.6172 10.8156 10.6163C10.6167 10.6152 10.4178 10.6162 10.2189 10.6176C10.1609 10.6168 10.1029 10.616 10.0431 10.6152C9.77133 10.6193 9.628 10.6412 9.40863 10.8113ZM9.40804 15.2641C9.23884 15.5051 9.24187 15.6458 9.28326 15.9366C9.42645 16.1952 9.48625 16.2534 9.76597 16.349C9.96486 16.3574 10.1615 16.3612 10.3604 16.3611C10.4519 16.3616 10.4519 16.3616 10.5453 16.362C10.7504 16.3629 10.9555 16.3632 11.1607 16.3636C11.3075 16.3641 11.4543 16.3646 11.6011 16.3652C12.0004 16.3666 12.3996 16.3675 12.7989 16.3682C13.0482 16.3686 13.2976 16.3691 13.5469 16.3696C14.3267 16.3712 15.1065 16.3724 15.8863 16.3731C16.7871 16.3739 17.6878 16.376 18.5886 16.3794C19.2845 16.3819 19.9804 16.3831 20.6763 16.3834C21.0921 16.3835 21.5079 16.3843 21.9237 16.3864C22.3148 16.3883 22.7058 16.3886 23.0969 16.3878C23.2405 16.3877 23.384 16.3883 23.5276 16.3894C23.7236 16.3909 23.9194 16.3903 24.1153 16.3892C24.1722 16.3901 24.2291 16.391 24.2877 16.3919C24.5701 16.3881 24.7235 16.3533 24.9641 16.1967C25.1475 16.0266 25.1474 16.0266 25.223 15.7769C25.236 15.512 25.236 15.512 25.0501 15.3056C24.7573 15.0688 24.545 15.0542 24.1872 15.0602C24.0939 15.0593 24.0939 15.0593 23.9987 15.0584C23.7905 15.057 23.5824 15.0585 23.3743 15.06C23.2249 15.0595 23.0756 15.0589 22.9262 15.0582C22.5208 15.0566 22.1154 15.0577 21.71 15.0593C21.2859 15.0607 20.8618 15.06 20.4378 15.0595C19.7256 15.0592 19.0136 15.0605 18.3015 15.0628C17.4778 15.0654 16.6542 15.0654 15.8305 15.064C15.0385 15.0627 14.2465 15.0632 13.4545 15.0647C13.1173 15.0652 12.78 15.0651 12.4428 15.0645C12.0459 15.0639 11.6489 15.0649 11.252 15.0672C11.1062 15.0677 10.9604 15.0677 10.8146 15.0671C10.6158 15.0664 10.4171 15.0677 10.2183 15.0696C10.1604 15.0689 10.1024 15.0682 10.0427 15.0675C9.77124 15.0721 9.62751 15.0947 9.40804 15.2641ZM9.40804 28.6233C9.23884 28.8643 9.24187 29.0049 9.28326 29.2958C9.42645 29.5544 9.48625 29.6126 9.76597 29.7081C9.96486 29.7165 10.1615 29.7203 10.3604 29.7203C10.4519 29.7207 10.4519 29.7207 10.5453 29.7212C10.7504 29.7221 10.9555 29.7224 11.1607 29.7227C11.3075 29.7233 11.4543 29.7238 11.6011 29.7244C12.0004 29.7258 12.3996 29.7267 12.7989 29.7274C13.0482 29.7278 13.2976 29.7283 13.5469 29.7288C14.3267 29.7304 15.1065 29.7316 15.8863 29.7322C16.7871 29.7331 17.6878 29.7352 18.5886 29.7386C19.2845 29.741 19.9804 29.7423 20.6763 29.7425C21.0921 29.7427 21.5079 29.7435 21.9237 29.7455C22.3148 29.7475 22.7058 29.7478 23.0969 29.747C23.2405 29.7469 23.384 29.7475 23.5276 29.7486C23.7236 29.75 23.9194 29.7495 24.1153 29.7484C24.1722 29.7493 24.2291 29.7502 24.2877 29.7511C24.5701 29.7473 24.7235 29.7125 24.9641 29.5558C25.1475 29.3858 25.1474 29.3858 25.223 29.1361C25.236 28.8712 25.236 28.8712 25.0501 28.6648C24.7573 28.428 24.545 28.4133 24.1872 28.4194C24.0939 28.4185 24.0939 28.4185 23.9987 28.4176C23.7905 28.4162 23.5824 28.4177 23.3743 28.4191C23.2249 28.4187 23.0756 28.4181 22.9262 28.4174C22.5208 28.4158 22.1154 28.4169 21.71 28.4185C21.2859 28.4199 20.8618 28.4191 20.4378 28.4187C19.7256 28.4184 19.0136 28.4197 18.3015 28.422C17.4778 28.4246 16.6542 28.4246 15.8305 28.4232C15.0385 28.4219 14.2465 28.4224 13.4545 28.4238C13.1173 28.4244 12.78 28.4243 12.4428 28.4237C12.0459 28.4231 11.6489 28.4241 11.252 28.4263C11.1062 28.4269 10.9604 28.4269 10.8146 28.4263C10.6158 28.4256 10.4171 28.4269 10.2183 28.4287C10.1604 28.4281 10.1024 28.4274 10.0427 28.4267C9.77124 28.4313 9.62751 28.4539 9.40804 28.6233Z" fill="#108059"/>
<path d="M1.18848 5.78475C1.25422 5.78487 1.31995 5.78498 1.38767 5.7851C1.59752 5.78557 1.80736 5.7866 2.01721 5.78765C2.15952 5.78806 2.30183 5.78844 2.44415 5.78878C2.79293 5.78969 3.14172 5.79111 3.4905 5.7928C3.49067 5.8809 3.49067 5.8809 3.49083 5.97077C3.49732 9.45106 3.50464 12.9313 3.51303 16.4116C3.51404 16.8295 3.51504 17.2473 3.51604 17.6651C3.51624 17.7483 3.51643 17.8315 3.51664 17.9172C3.51983 19.2643 3.52247 20.6114 3.5249 21.9585C3.5274 23.3406 3.5305 24.7227 3.53417 26.1049C3.53642 26.9578 3.53819 27.8107 3.53936 28.6636C3.54021 29.2484 3.54164 29.8332 3.54353 30.418C3.54461 30.7555 3.54543 31.0929 3.54555 31.4304C3.54567 31.7394 3.54652 32.0485 3.54796 32.3576C3.54853 32.5221 3.54832 32.6865 3.54808 32.851C3.55256 33.5842 3.57164 34.2351 4.05367 34.8202C4.47427 35.1484 4.83952 35.3245 5.37156 35.3264C5.44198 35.3268 5.51241 35.3273 5.58496 35.3278C5.66197 35.3278 5.73898 35.3279 5.81832 35.328C5.94144 35.3286 5.94144 35.3286 6.06705 35.3292C6.34289 35.3305 6.61874 35.3312 6.89458 35.3319C7.09199 35.3327 7.28941 35.3335 7.48682 35.3344C7.91225 35.3361 8.33768 35.3376 8.76311 35.3389C9.37822 35.3408 9.99332 35.3431 10.6084 35.3456C11.6064 35.3495 12.6043 35.3531 13.6023 35.3564C14.5717 35.3596 15.5412 35.3631 16.5106 35.3667C16.5704 35.3669 16.6301 35.3672 16.6917 35.3674C16.9914 35.3685 17.2912 35.3697 17.591 35.3708C20.0779 35.3802 22.5649 35.389 25.0518 35.3974C25.0598 35.8361 25.0656 36.2748 25.0695 36.7136C25.0711 36.8628 25.0733 37.0119 25.0761 37.1611C25.08 37.3759 25.0819 37.5905 25.0833 37.8053C25.0849 37.8717 25.0866 37.9381 25.0883 38.0066C25.0884 38.3022 25.0628 38.5046 24.9491 38.7794C24.5865 39.0508 24.2047 38.9994 23.7675 38.9946C23.6679 38.9951 23.5682 38.9957 23.4655 38.9962C23.1888 38.9973 22.9121 38.9964 22.6353 38.9949C22.3369 38.9936 22.0385 38.9947 21.7401 38.9955C21.1555 38.9967 20.5709 38.9957 19.9863 38.9939C19.3059 38.9919 18.6255 38.9921 17.9451 38.9923C16.7314 38.9926 15.5177 38.9909 14.304 38.9881C13.1254 38.9853 11.9469 38.9842 10.7684 38.9847C9.48586 38.9852 8.2033 38.985 6.92073 38.9834C6.85295 38.9833 6.78517 38.9832 6.71534 38.9832C6.57919 38.983 6.44305 38.9828 6.30691 38.9826C5.8323 38.9821 5.35769 38.982 4.88308 38.9821C4.30499 38.9822 3.72691 38.9815 3.14882 38.9795C2.8537 38.9785 2.5586 38.9779 2.26348 38.9784C1.94403 38.9789 1.6246 38.9775 1.30516 38.9759C1.21123 38.9763 1.1173 38.9768 1.02053 38.9772C0.89273 38.9761 0.89273 38.9761 0.762352 38.975C0.688566 38.9748 0.61478 38.9747 0.538758 38.9746C0.314666 38.937 0.246096 38.8804 0.111486 38.696C0.0212193 38.4184 0.020761 38.2097 0.0204596 37.917C0.0202945 37.8626 0.0201294 37.8081 0.0199592 37.752C0.0195017 37.5682 0.0196204 37.3844 0.0197344 37.2007C0.0195266 37.0681 0.0192842 36.9355 0.01901 36.8029C0.0183596 36.4376 0.0182168 36.0723 0.0181575 35.7069C0.0180088 35.3133 0.0174017 34.9197 0.0168593 34.5261C0.0157657 33.665 0.0152817 32.8039 0.0149276 31.9428C0.0147055 31.4055 0.0143647 30.8681 0.0140021 30.3307C0.0130211 28.8438 0.0121925 27.3568 0.0119203 25.8698C0.0119027 25.7746 0.011885 25.6794 0.0118668 25.5813C0.0118492 25.4859 0.0118317 25.3904 0.0118136 25.2921C0.0117779 25.0987 0.011742 24.9053 0.0117058 24.7119C0.011688 24.616 0.0116702 24.52 0.0116518 24.4212C0.011334 22.866 0.0099294 21.3108 0.00805652 19.7556C0.00615043 18.1599 0.00514614 16.5643 0.00505224 14.9687C0.0049784 14.0724 0.00451327 13.176 0.00305546 12.2797C0.00181875 11.5166 0.00140303 10.7535 0.00206892 9.99045C0.00238403 9.60092 0.00230446 9.21141 0.00117936 8.82188C0.000159397 8.46551 0.000246423 8.10915 0.00122685 7.75278C0.00138516 7.62364 0.00113273 7.49451 0.000434889 7.36537C-0.000452101 7.19019 0.000140957 7.01508 0.00111 6.8399C0.00106196 6.7425 0.00101394 6.64509 0.00096445 6.54473C0.0345033 6.25791 0.100279 6.10253 0.272392 5.87527C0.579846 5.77022 0.868293 5.78262 1.18848 5.78475Z" fill="#108059"/>
<path d="M33.7406 10.002C33.981 10.1203 34.153 10.2381 34.3439 10.4302C34.3973 10.4836 34.4507 10.537 34.5057 10.592C34.5624 10.6497 34.619 10.7073 34.6774 10.7667C34.7654 10.8558 34.7654 10.8558 34.8552 10.9466C34.9788 11.0722 35.1022 11.1979 35.2254 11.3239C35.4147 11.517 35.6055 11.7084 35.7964 11.8999C35.9162 12.022 36.036 12.1442 36.1557 12.2665C36.2132 12.3238 36.2707 12.3811 36.3299 12.4401C36.382 12.4941 36.4341 12.548 36.4878 12.6036C36.5574 12.6742 36.5574 12.6742 36.6284 12.7463C36.7173 12.8882 36.7173 12.8882 36.7043 13.038C36.6124 13.2834 36.4728 13.4166 36.2912 13.6021C36.2166 13.6789 36.1421 13.7556 36.0652 13.8348C35.982 13.9192 35.8987 14.0037 35.8153 14.0882C35.7281 14.1776 35.6409 14.267 35.5537 14.3564C35.3169 14.5993 35.0794 14.8413 34.8417 15.0832C34.5934 15.3361 34.3459 15.5897 34.0982 15.8433C33.6291 16.3233 33.1594 16.8027 32.6895 17.2819C32.1546 17.8274 31.6203 18.3737 31.0861 18.92C29.9872 20.0438 28.8874 21.1667 27.7871 22.2891C27.5466 22.1707 27.3746 22.0529 27.1837 21.8609C27.1303 21.8075 27.0769 21.7541 27.0219 21.699C26.9653 21.6414 26.9086 21.5838 26.8502 21.5244C26.7916 21.465 26.7329 21.4056 26.6725 21.3444C26.5488 21.2189 26.4254 21.0931 26.3022 20.9672C26.1129 20.7741 25.9221 20.5826 25.7313 20.3911C25.6114 20.269 25.4916 20.1469 25.3719 20.0246C25.3144 19.9673 25.2569 19.9099 25.1977 19.8509C25.1456 19.797 25.0935 19.7431 25.0398 19.6875C24.9934 19.6404 24.947 19.5933 24.8993 19.5447C24.8103 19.4029 24.8103 19.4029 24.8234 19.2531C24.9152 19.0076 25.0548 18.8745 25.2364 18.689C25.311 18.6122 25.3856 18.5354 25.4624 18.4563C25.5457 18.3718 25.629 18.2873 25.7123 18.2029C25.7995 18.1135 25.8867 18.0241 25.9739 17.9346C26.2107 17.6918 26.4483 17.4498 26.686 17.2078C26.9342 16.9549 27.1818 16.7013 27.4294 16.4478C27.8985 15.9677 28.3682 15.4883 28.8381 15.0092C29.373 14.4636 29.9073 13.9174 30.4415 13.3711C31.5404 12.2472 32.6402 11.1243 33.7406 10.002Z" fill="#E09B3D"/>
<path d="M38.5678 7.52864C39.0972 7.97589 39.5056 8.45483 39.6086 9.16761C39.6416 9.74001 39.5066 10.1958 39.146 10.6365C39.0356 10.7568 38.9229 10.875 38.8091 10.9921C38.7642 11.0388 38.7193 11.0854 38.673 11.1334C38.3451 11.4734 38.0147 11.8107 37.6828 12.1466C37.2817 11.8021 36.9051 11.4431 36.5367 11.0624C36.4839 11.0081 36.4311 10.9539 36.3767 10.8981C36.2102 10.7269 36.0439 10.5554 35.8776 10.384C35.764 10.267 35.6502 10.1501 35.5365 10.0332C35.2595 9.7483 34.9827 9.46318 34.7061 9.17792C34.8303 8.91022 34.9627 8.7287 35.1677 8.51788C35.2271 8.45681 35.2865 8.39574 35.3476 8.33282C35.4407 8.23835 35.4407 8.23835 35.5357 8.14196C35.5969 8.07866 35.658 8.01536 35.721 7.95014C35.7807 7.88917 35.8404 7.82821 35.9018 7.7654C35.956 7.71006 36.0102 7.65472 36.066 7.59771C36.8289 6.91223 37.7511 6.96239 38.5678 7.52864Z" fill="#E09B3D"/>
<path d="M25.6152 1.00977C25.9229 1.16746 26.0809 1.30132 26.3207 1.54659C26.3576 1.58415 26.3945 1.62171 26.4326 1.66041C26.554 1.78414 26.6748 1.90846 26.7956 2.03284C26.8799 2.11913 26.9642 2.20539 27.0486 2.29163C27.2249 2.47216 27.401 2.65297 27.5769 2.834C27.8027 3.0664 28.0292 3.29804 28.2559 3.52948C28.43 3.70731 28.6037 3.88553 28.7773 4.06387C28.8607 4.14948 28.9442 4.23496 29.0279 4.32032C29.1444 4.43936 29.2604 4.55897 29.3763 4.67861C29.4425 4.7466 29.5087 4.81459 29.5769 4.88464C29.7183 5.05051 29.7183 5.05051 29.7183 5.21543C28.3643 5.21543 27.0103 5.21543 25.6152 5.21543C25.6152 3.82756 25.6152 2.43969 25.6152 1.00977Z" fill="#E09B3D"/>
<path d="M23.8449 20.1465C24.2461 20.491 24.6227 20.85 24.9911 21.2308C25.0439 21.285 25.0966 21.3392 25.151 21.395C25.3176 21.5662 25.4838 21.7377 25.6501 21.9092C25.7638 22.0261 25.8775 22.143 25.9912 22.2599C26.2683 22.5448 26.5451 22.8299 26.8217 23.1152C26.7819 23.1968 26.7819 23.1968 26.7412 23.2801C26.5032 23.3596 26.2678 23.4295 26.026 23.4947C25.9538 23.5146 25.8817 23.5345 25.8073 23.555C25.6543 23.597 25.5012 23.6387 25.348 23.6801C25.114 23.7435 24.8803 23.8081 24.6466 23.8728C24.498 23.9135 24.3494 23.9541 24.2007 23.9946C24.1309 24.0139 24.0611 24.0332 23.9891 24.0532C23.3378 24.2278 23.3378 24.2278 23.0404 24.1872C22.9873 24.1328 22.9342 24.0784 22.8795 24.0223C22.9916 23.2087 23.2413 22.4121 23.4527 21.6205C23.4908 21.4773 23.5288 21.3341 23.5668 21.1908C23.6593 20.8426 23.752 20.4945 23.8449 20.1465Z" fill="#E09B3D"/>
</svg>
