<svg width="503" height="281" viewBox="0 0 503 281" fill="none" xmlns="http://www.w3.org/2000/svg">
<path opacity="0.93" d="M481 166V168H444C444 167.556 444.156 166.889 444.156 166.444C444.156 166.222 444.156 166.222 444.156 166H481Z" fill="white"/>
<path opacity="0.93" d="M426 168H281.519C276.688 168 271.856 166.267 268.115 163.117L267.959 162.96L246.763 134.608C243.022 129.568 236.944 126.418 230.553 126.418H3V125H230.553C237.255 125 243.801 128.308 247.854 133.663L269.05 162.015C272.635 165.007 276.999 166.582 281.519 166.582H425.844C425.844 166.74 425.844 166.74 425.844 166.897C425.844 167.212 425.844 167.527 426 168Z" fill="white"/>
<path opacity="0.93" d="M435 176C430.035 176 426 171.965 426 167C426 162.034 430.035 158 435 158C439.966 158 444 162.034 444 167C444 171.965 439.966 176 435 176ZM435 159.552C430.81 159.552 427.397 162.966 427.397 167.155C427.397 171.345 430.81 174.759 435 174.759C439.19 174.759 442.603 171.345 442.603 167.155C442.603 162.81 439.19 159.552 435 159.552Z" fill="white"/>
<path opacity="0.93" d="M434.5 171C436.985 171 439 168.985 439 166.5C439 164.015 436.985 162 434.5 162C432.015 162 430 164.015 430 166.5C430 168.985 432.015 171 434.5 171Z" fill="white"/>
<path opacity="0.93" d="M218.5 196C221.538 196 224 193.538 224 190.5C224 187.462 221.538 185 218.5 185C215.462 185 213 187.462 213 190.5C213 193.538 215.462 196 218.5 196Z" fill="white"/>
<path opacity="0.93" d="M383.5 159C386.538 159 389 156.538 389 153.5C389 150.462 386.538 148 383.5 148C380.462 148 378 150.462 378 153.5C378 156.538 380.462 159 383.5 159Z" fill="white"/>
<path opacity="0.93" d="M390.5 113C393.538 113 396 110.538 396 107.5C396 104.462 393.538 102 390.5 102C387.462 102 385 104.462 385 107.5C385 110.538 387.462 113 390.5 113Z" fill="white"/>
<path opacity="0.93" d="M246 59C241.035 59 237 54.9655 237 50C237 45.0345 241.035 41 246 41C250.966 41 255 45.0345 255 50C254.845 54.9655 250.81 59 246 59ZM246 42.3965C241.81 42.3965 238.397 45.8103 238.397 50C238.397 54.1897 241.81 57.6034 246 57.6034C250.19 57.6034 253.603 54.1897 253.603 50C253.448 45.8103 250.035 42.3965 246 42.3965Z" fill="white"/>
<path opacity="0.93" d="M246 54C248.209 54 250 51.9853 250 49.5C250 47.0147 248.209 45 246 45C243.791 45 242 47.0147 242 49.5C242 51.9853 243.791 54 246 54Z" fill="white"/>
<path opacity="0.93" d="M328 228C330.761 228 333 225.761 333 223C333 220.239 330.761 218 328 218C325.239 218 323 220.239 323 223C323 225.761 325.239 228 328 228Z" fill="white"/>
<path opacity="0.93" d="M348.5 228C351.538 228 354 225.761 354 223C354 220.239 351.538 218 348.5 218C345.462 218 343 220.239 343 223C343 225.761 345.462 228 348.5 228Z" fill="white"/>
<path opacity="0.93" d="M368 228C370.761 228 373 225.761 373 223C373 220.239 370.761 218 368 218C365.239 218 363 220.239 363 223C363 225.761 365.239 228 368 228Z" fill="white"/>
<g opacity="0.93">
<path d="M382.043 245.258C376.899 245.258 372.69 249.467 372.69 254.611C372.69 259.754 376.899 263.963 382.043 263.963C387.187 263.963 391.395 259.754 391.395 254.611C391.395 249.467 387.187 245.258 382.043 245.258ZM382.043 262.716C377.678 262.716 374.093 259.131 374.093 254.767C374.093 250.402 377.678 246.817 382.043 246.817C386.407 246.817 389.992 250.402 389.992 254.767C389.992 259.131 386.407 262.716 382.043 262.716Z" fill="white"/>
<path d="M382.043 259.131C384.454 259.131 386.408 257.177 386.408 254.766C386.408 252.356 384.454 250.402 382.043 250.402C379.633 250.402 377.679 252.356 377.679 254.766C377.679 257.177 379.633 259.131 382.043 259.131Z" fill="white"/>
</g>
<path opacity="0.93" d="M478 141.595V143H338.293C329.26 143 322.096 135.662 322.096 126.762V102.093C322.096 97.8773 318.669 94.4424 314.464 94.4424H262.444C252.787 94.4424 245 86.6357 245 76.9554V59C245.156 59 245.467 59 245.623 59C245.934 59 246.09 59 246.402 59V76.7993C246.402 85.6989 253.566 92.881 262.444 92.881H314.464C319.448 92.881 323.497 96.9405 323.497 101.937V126.606C323.497 134.881 330.195 141.439 338.293 141.439H478V141.595Z" fill="white"/>
<path opacity="0.93" d="M247 15.9011V41C246.687 41 246.531 41 246.219 41C246.062 41 245.75 41 245.594 41V15.9011C245.594 7.95056 239.03 1.40306 231.06 1.40306H4V0H231.06C239.968 0 247 7.0152 247 15.9011Z" fill="white"/>
<path opacity="0.93" d="M281.908 239L283 239.947L259.763 272.474C256.02 277.842 249.782 281 243.232 281H4V279.579H243.388C249.47 279.579 255.24 276.579 258.671 271.684L281.908 239Z" fill="white"/>
<path opacity="0.93" d="M323 223.43H306.686C299.471 223.43 292.725 226.925 288.49 232.963L284.098 239L283 238.047L287.235 232.009C291.784 225.654 299 222 306.686 222H323C323 222.159 323 222.318 323 222.636C322.843 222.953 322.843 223.271 323 223.43Z" fill="white"/>
<path opacity="0.93" d="M343 222.889C343 223.333 343 223.778 343 224H333C333 223.556 333 223.111 333 222.889C333 222.667 333 222.222 333 222H342.855C343 222.444 343 222.667 343 222.889Z" fill="white"/>
<path opacity="0.93" d="M363 222.889C363 223.333 363 223.778 363 224H354C354 223.556 354 223.111 354 222.889C354 222.667 354 222.222 354 222H363C363 222.444 363 222.667 363 222.889Z" fill="white"/>
<path opacity="0.93" d="M503 223V224H373C373 223.778 373 223.556 373 223.444C373 223.333 373 223.111 373 223H503Z" fill="white"/>
<path opacity="0.93" d="M213.844 190.333C213.844 190.556 213.844 190.778 214 191H4V190H214C213.844 190.111 213.844 190.222 213.844 190.333Z" fill="white"/>
<path opacity="0.93" d="M491 202.6V204H364.354C360.616 204 357.033 202.756 354.073 200.578L345.661 194.511C342.857 192.489 339.586 191.4 336.003 191.4H224C224 191.089 224.156 190.778 224.156 190.467C224.156 190.311 224.156 190.156 224.156 190H336.003C339.742 190 343.324 191.244 346.44 193.422L354.852 199.489C357.656 201.511 360.927 202.6 364.354 202.6H491Z" fill="white"/>
<path opacity="0.93" d="M255.156 50.248H326.896C332.979 50.248 339.061 52.276 343.896 55.864L380.078 83.008C384.444 86.284 389.747 88 395.206 88H488V86.596H395.206C390.059 86.596 384.912 84.88 380.857 81.76L344.831 54.928C339.685 51.028 333.29 49 326.896 49H255L255.156 50.248Z" fill="white"/>
<path opacity="0.93" d="M237 50H0V49H237V50Z" fill="white"/>
<path opacity="0.93" d="M260.908 153L262 155H3V153H260.908Z" fill="white"/>
<path opacity="0.93" d="M378 155H263.093L262 153H377.844C377.844 153.222 377.844 153.444 377.844 153.667C377.844 153.889 377.844 154.556 378 155Z" fill="white"/>
<path opacity="0.93" d="M373 255H306.322C302.739 255 299.467 253.759 296.663 251.431L256.002 216.828C251.796 213.259 246.655 211.397 241.202 211.397H3V210H241.046C246.811 210 252.419 212.017 256.781 215.741L297.598 250.5C300.091 252.517 303.05 253.759 306.322 253.759H373V255Z" fill="white"/>
<path opacity="0.93" d="M385 107.556C385 107.667 385 107.778 385 108H3V107H385C385 107.111 385 107.333 385 107.556Z" fill="white"/>
<path opacity="0.93" d="M246 80H2V78H245.687C245.844 78.6666 245.844 79.3334 246 80Z" fill="white"/>
<path d="M249.5 110C282.361 110 309 108.657 309 107C309 105.343 282.361 104 249.5 104C216.639 104 190 105.343 190 107C190 108.657 216.639 110 249.5 110Z" fill="url(#paint0_radial_153_127)"/>
<defs>
<radialGradient id="paint0_radial_153_127" cx="0" cy="0" r="1" gradientUnits="userSpaceOnUse" gradientTransform="translate(249.448 106.95) scale(54.4282 2.7115)">
<stop offset="0.1515" stopColor="white"/>
<stop offset="1" stopColor="white" stopOpacity="0"/>
</radialGradient>
</defs>
</svg>
