<svg width="20" height="20" viewBox="0 0 20 20" fill="none" xmlns="http://www.w3.org/2000/svg">
<g clipPath="url(#clip0_63_62)">
<path d="M16.9309 3.64162C15.6562 3.05674 14.2892 2.6258 12.86 2.37897C12.8339 2.3742 12.8079 2.38611 12.7945 2.4099C12.6187 2.7226 12.424 3.13049 12.2876 3.45111C10.7504 3.22096 9.22101 3.22096 7.7153 3.45111C7.5789 3.12338 7.3771 2.7226 7.2005 2.4099C7.1871 2.3869 7.16108 2.37498 7.13507 2.37897C5.70663 2.62498 4.33968 3.05592 3.06413 3.64162C3.05308 3.64639 3.04362 3.65432 3.03733 3.66463C0.444522 7.53826 -0.265791 11.3167 0.0826466 15.0483C0.0842091 15.0665 0.0944826 15.084 0.108662 15.0951C1.81933 16.3514 3.47644 17.114 5.10272 17.6196C5.12874 17.6275 5.15632 17.618 5.17288 17.5966C5.55757 17.0712 5.9005 16.5173 6.19452 15.9347C6.21187 15.9006 6.1953 15.8601 6.15983 15.8467C5.61589 15.6403 5.09796 15.3887 4.59972 15.1031C4.5603 15.0801 4.55714 15.0237 4.59343 14.9967C4.69827 14.9181 4.80316 14.8364 4.90327 14.7538C4.9214 14.7388 4.94663 14.7356 4.96792 14.7451C8.24105 16.2395 11.7846 16.2395 15.0191 14.7451C15.0404 14.7348 15.0656 14.738 15.0845 14.753C15.1847 14.8356 15.2895 14.9181 15.3951 14.9967C15.4314 15.0237 15.429 15.08 15.3896 15.103C14.8914 15.3943 14.3735 15.6403 13.8287 15.8458C13.7933 15.8593 13.7775 15.9006 13.7949 15.9347C14.0952 16.5164 14.4382 17.0704 14.8157 17.5958C14.8315 17.618 14.8599 17.6275 14.8859 17.6196C16.5201 17.114 18.1772 16.3513 19.8878 15.0951C19.9028 15.084 19.9123 15.0673 19.9139 15.049C20.3309 10.7349 19.2154 6.98748 16.9568 3.66541C16.9514 3.65432 16.9419 3.64639 16.9309 3.64162ZM6.68339 12.7761C5.69796 12.7761 4.88597 11.8714 4.88597 10.7603C4.88597 9.64928 5.68218 8.74455 6.68339 8.74455C7.69241 8.74455 8.49655 9.65721 8.48077 10.7603C8.48077 11.8714 7.68452 12.7761 6.68339 12.7761ZM13.329 12.7761C12.3436 12.7761 11.5316 11.8714 11.5316 10.7603C11.5316 9.64928 12.3278 8.74455 13.329 8.74455C14.338 8.74455 15.1421 9.65721 15.1264 10.7603C15.1264 11.8714 14.3381 12.7761 13.329 12.7761Z" fill="#5865F2"/>
</g>
<defs>
<clipPath id="clip0_63_62">
<rect width="20" height="20" fill="white"/>
</clipPath>
</defs>
</svg>
