<svg width="20" height="20" viewBox="0 0 20 20" fill="none" xmlns="http://www.w3.org/2000/svg">
<g clipPath="url(#clip0_63_72)">
<path d="M16.8421 0H3.15789C1.41384 0 0 1.41384 0 3.15789V16.8421C0 18.5862 1.41384 20 3.15789 20H16.8421C18.5862 20 20 18.5862 20 16.8421V3.15789C20 1.41384 18.5862 0 16.8421 0Z" fill="url(#paint0_linear_63_72)"/>
<path opacity="0.1" d="M18.8158 0.693427C17.4303 4.16974 14.8947 7.96711 11.4316 11.4303C7.96843 14.8934 4.16974 17.429 0.693427 18.8158C0.243354 18.2566 -0.00139298 17.56 5.96397e-06 16.8421V3.1579C5.96397e-06 2.32038 0.332712 1.51715 0.924932 0.924932C1.51715 0.332712 2.32038 5.96397e-06 3.1579 5.96397e-06H16.8421C17.56 -0.00139298 18.2566 0.243354 18.8158 0.693427Z" fill="white"/>
<path d="M12.3684 4.73682H7.63155C6.86382 4.73682 6.12753 5.0418 5.58467 5.58467C5.0418 6.12753 4.73682 6.86382 4.73682 7.63155V12.3684C4.73682 13.1361 5.0418 13.8724 5.58467 14.4153C6.12753 14.9582 6.86382 15.2631 7.63155 15.2631H12.3684C13.1361 15.2631 13.8724 14.9582 14.4153 14.4153C14.9582 13.8724 15.2631 13.1361 15.2631 12.3684V7.63155C15.2631 6.86382 14.9582 6.12753 14.4153 5.58467C13.8724 5.0418 13.1361 4.73682 12.3684 4.73682ZM14.3421 11.9526C14.3421 12.5863 14.0903 13.1941 13.6422 13.6422C13.1941 14.0903 12.5863 14.3421 11.9526 14.3421H8.04734C7.41361 14.3421 6.80584 14.0903 6.35773 13.6422C5.90962 13.1941 5.65787 12.5863 5.65787 11.9526V8.04734C5.65787 7.41361 5.90962 6.80584 6.35773 6.35773C6.80584 5.90962 7.41361 5.65787 8.04734 5.65787H11.9526C12.5863 5.65787 13.1941 5.90962 13.6422 6.35773C14.0903 6.80584 14.3421 7.41361 14.3421 8.04734V11.9526Z" fill="white"/>
<path d="M11.9197 8.10001L11.8947 8.07501L11.8737 8.05396C11.3762 7.55818 10.7024 7.27994 10 7.28027C9.64533 7.28268 9.2946 7.35495 8.96785 7.49296C8.64111 7.63096 8.34476 7.83199 8.09573 8.08456C7.84671 8.33713 7.64988 8.63629 7.51651 8.96495C7.38314 9.29361 7.31583 9.64533 7.31843 10C7.3179 10.7198 7.60163 11.4107 8.10791 11.9224C8.35589 12.1734 8.65139 12.3725 8.97716 12.508C9.30293 12.6436 9.65243 12.7129 10.0053 12.7119C10.5345 12.7008 11.0491 12.5359 11.4863 12.2373C11.9235 11.9388 12.2643 11.5195 12.4673 11.0306C12.6702 10.5417 12.7265 10.0042 12.6293 9.48388C12.5321 8.96351 12.2856 8.48267 11.9197 8.10001ZM10 11.7842C9.64611 11.7892 9.29872 11.6888 9.00204 11.4958C8.70536 11.3027 8.47278 11.0259 8.3339 10.7003C8.19501 10.3747 8.1561 10.0152 8.22209 9.66751C8.28808 9.31977 8.45601 8.99952 8.70451 8.74749C8.95302 8.49546 9.27086 8.32303 9.61763 8.25213C9.9644 8.18124 10.3244 8.21508 10.6519 8.34936C10.9794 8.48364 11.2595 8.71228 11.4567 9.00621C11.6539 9.30014 11.7592 9.64607 11.7592 10C11.761 10.2327 11.7168 10.4635 11.6293 10.6791C11.5418 10.8947 11.4127 11.091 11.2493 11.2567C11.086 11.4224 10.8915 11.5542 10.6772 11.6448C10.4628 11.7353 10.2327 11.7827 10 11.7842Z" fill="white"/>
<path d="M13.4775 7.15548C13.4782 7.23991 13.4622 7.32365 13.4305 7.40191C13.3988 7.48016 13.3519 7.5514 13.2927 7.61153C13.2334 7.67166 13.1628 7.71951 13.085 7.75234C13.0073 7.78517 12.9238 7.80233 12.8393 7.80285C12.7556 7.80281 12.6727 7.78616 12.5955 7.75386C12.5182 7.72156 12.4482 7.67426 12.3893 7.61469C12.3002 7.52425 12.2395 7.40963 12.2149 7.28505C12.1903 7.16047 12.2028 7.03141 12.2509 6.91386C12.2989 6.79632 12.3804 6.69547 12.4853 6.62381C12.5901 6.55215 12.7137 6.51283 12.8406 6.51074C12.9892 6.51071 13.1331 6.56287 13.2472 6.65811L13.2604 6.67127C13.2816 6.68854 13.301 6.70794 13.3183 6.72916L13.3327 6.74495C13.4269 6.86099 13.4781 7.00603 13.4775 7.15548Z" fill="white"/>
</g>
<defs>
<linearGradient id="paint0_linear_63_72" x1="0.925" y1="0.925" x2="19.075" y2="19.075" gradientUnits="userSpaceOnUse">
<stop stopColor="#FAE100"/>
<stop offset="0.15" stopColor="#FCB720"/>
<stop offset="0.3" stopColor="#FF7950"/>
<stop offset="0.5" stopColor="#FF1C74"/>
<stop offset="1" stopColor="#6C1CD1"/>
</linearGradient>
<clipPath id="clip0_63_72">
<rect width="20" height="20" fill="white"/>
</clipPath>
</defs>
</svg>
