<svg width="40" height="40" viewBox="0 0 40 40" fill="none" xmlns="http://www.w3.org/2000/svg">
<rect x="0.5" y="0.5" width="39" height="39" rx="3.5" fill="white"/>
<rect x="0.5" y="0.5" width="39" height="39" rx="3.5" stroke="white"/>
<path d="M25.7202 7.54881C25.9364 7.72069 26.1441 7.89815 26.3495 8.08278C26.4093 8.13607 26.4691 8.18936 26.5308 8.24427C27.9879 9.619 29.0458 11.6779 29.1312 13.6989C29.1917 16.2206 28.7337 18.5236 26.9831 20.4377C26.7373 20.6888 26.487 20.9351 26.2368 21.1817C25.5654 21.8469 25.0161 22.5566 24.5279 23.3681C24.464 23.3552 24.4 23.3424 24.3341 23.3291C24.0038 23.2819 23.6851 23.2778 23.352 23.2786C23.2832 23.2785 23.2143 23.2783 23.1434 23.2782C22.9169 23.2779 22.6903 23.2781 22.4638 23.2784C22.3058 23.2783 22.1478 23.2782 21.9898 23.2781C21.6591 23.278 21.3284 23.2782 20.9976 23.2785C20.5742 23.279 20.1508 23.2787 19.7273 23.2783C19.4012 23.278 19.0751 23.2781 18.749 23.2783C18.5929 23.2783 18.4367 23.2783 18.2806 23.2781C18.0623 23.2779 17.8439 23.2782 17.6256 23.2786C17.5614 23.2785 17.4972 23.2783 17.4311 23.2781C17.0951 23.2794 16.7806 23.3015 16.4497 23.3681C16.4207 23.318 16.3917 23.268 16.3618 23.2165C15.8469 22.3656 15.2083 21.6372 14.4945 20.9475C13.8818 20.355 13.3904 19.7513 12.9649 19.0122C12.9384 18.9661 12.9119 18.9201 12.8846 18.8727C12.1324 17.5357 11.8242 16.1178 11.8314 14.5919C11.8318 14.4942 11.8322 14.3966 11.8326 14.2959C11.8416 13.594 11.8951 12.9567 12.0938 12.2803C12.1198 12.1855 12.1458 12.0906 12.1727 11.9929C12.8016 9.90571 14.2306 8.01049 16.1546 6.95432C19.2562 5.34523 22.8764 5.44687 25.7202 7.54881ZM16.7665 8.47877C16.5516 8.76454 16.3905 9.01775 16.316 9.36976C16.1872 9.63975 16.1143 9.64545 15.8408 9.74595C15.77 9.77086 15.6991 9.79577 15.6261 9.82143C15.077 10.0424 14.7233 10.4911 14.4697 11.0131C14.3237 11.3835 14.3124 11.6925 14.341 12.0872C14.35 12.4709 14.35 12.4709 14.1848 12.6716C14.0734 12.7614 13.96 12.8486 13.8448 12.9334C13.4995 13.2205 13.2849 13.6628 13.2025 14.1019C13.1377 14.8267 13.2163 15.4338 13.6555 16.0286C13.8611 16.2709 14.0458 16.4592 14.3113 16.6362C14.3234 16.8289 14.3234 16.8289 14.3064 17.0668C14.2921 17.7703 14.4744 18.3059 14.9251 18.8488C15.3112 19.2507 15.7329 19.4967 16.2913 19.5665C16.2945 19.6302 16.2978 19.694 16.3012 19.7596C16.4464 20.3509 16.818 20.7946 17.3165 21.1332C17.9339 21.4994 18.5763 21.5899 19.2807 21.4125C19.738 21.2462 20.0595 21.0102 20.4096 20.6753C20.5986 20.7647 20.7364 20.8426 20.8947 20.9822C21.4951 21.426 22.127 21.5628 22.8647 21.4673C23.5461 21.2943 24.0489 20.9406 24.4388 20.3585C24.5913 20.0986 24.6635 19.8704 24.6863 19.5665C24.7322 19.5531 24.7782 19.5396 24.8255 19.5257C25.4748 19.3243 25.9692 19.0324 26.3495 18.4578C26.5857 17.9954 26.6815 17.61 26.6465 17.0916C26.6301 16.6808 26.6301 16.6808 26.7922 16.4809C26.9037 16.3925 27.0173 16.3066 27.1328 16.2235C27.5028 15.9097 27.7493 15.3293 27.7939 14.849C27.815 13.9997 27.6131 13.4284 27.0372 12.8025C26.8948 12.6605 26.8948 12.6605 26.6663 12.5179C26.6542 12.3224 26.6542 12.3224 26.6712 12.0823C26.687 11.3867 26.452 10.8284 26.02 10.2864C25.6484 9.91798 25.2034 9.66774 24.6863 9.58755C24.683 9.52385 24.6798 9.46014 24.6764 9.3945C24.5312 8.8032 24.1596 8.35953 23.6611 8.02091C23.0437 7.65474 22.4013 7.56419 21.6969 7.74155C21.2396 7.90788 20.9181 8.14393 20.568 8.47877C20.379 8.38943 20.2412 8.31152 20.0829 8.17188C19.0384 7.39983 17.6438 7.503 16.7665 8.47877Z" fill="#108059"/>
<path d="M4.48848 32.669C4.5994 32.699 4.71035 32.7288 4.82132 32.7586C5.06146 32.8232 5.30142 32.8885 5.54126 32.9542C5.92821 33.0603 6.31553 33.165 6.7029 33.2695C7.19521 33.4024 7.68741 33.5357 8.17952 33.6693C9.22222 33.9525 10.2657 34.2326 11.3094 34.5119C11.3934 34.5344 11.4773 34.5569 11.5638 34.58C11.9026 34.6707 12.2415 34.7614 12.5804 34.8521C13.2277 35.0253 13.875 35.1987 14.5222 35.3724C14.9039 35.4748 15.2855 35.577 15.6673 35.6789C16.345 35.8598 17.0222 36.0422 17.6977 36.2317C17.9964 36.3154 18.2955 36.3981 18.5945 36.4808C18.7345 36.5198 18.8744 36.5593 19.0141 36.5993C19.2066 36.6545 19.3995 36.7079 19.5926 36.761C19.6479 36.7774 19.7031 36.7937 19.7601 36.8105C20.4388 36.9929 21.0871 36.8386 21.7504 36.6562C21.8169 36.6385 21.8833 36.6207 21.9518 36.6025C22.1718 36.5436 22.3915 36.4839 22.6113 36.4242C22.7695 36.3817 22.9276 36.3392 23.0858 36.2968C23.5126 36.1823 23.9392 36.067 24.3657 35.9516C24.8118 35.831 25.2582 35.7111 25.7046 35.5912C26.4452 35.392 27.1857 35.1925 27.9262 34.9927C29.0067 34.7011 30.0875 34.4105 31.1684 34.1203C31.5054 34.0298 31.8423 33.9393 32.1792 33.8488C32.2605 33.827 32.3417 33.8052 32.4255 33.7827C32.9802 33.6337 33.5349 33.4845 34.0896 33.3353C34.1641 33.3152 34.2387 33.2951 34.3155 33.2745C34.7243 33.1645 35.133 33.0545 35.5417 32.9444C35.6611 32.9123 35.7805 32.8802 35.8999 32.8482C36.182 32.7726 36.464 32.6964 36.7456 32.6188C36.7994 32.6042 36.8532 32.5895 36.9087 32.5743C37.0537 32.5347 37.1986 32.4948 37.3435 32.4549C37.7444 32.3595 38.1629 32.2702 38.5385 32.4788C38.7726 32.6648 38.9259 32.8218 38.9636 33.1213C38.9662 33.1887 38.9689 33.2561 38.9716 33.3255C38.9755 33.3921 38.9794 33.4586 38.9834 33.5272C38.9255 33.8263 38.7667 34.016 38.5459 34.2165C38.3446 34.3062 38.1769 34.368 37.9673 34.4225C37.9117 34.4383 37.8561 34.4542 37.7988 34.4706C37.6259 34.5195 37.4524 34.5661 37.2788 34.6125C37.175 34.6414 37.0714 34.6704 36.9677 34.6995C36.6473 34.7889 36.326 34.8745 36.0045 34.9599C35.8817 34.9928 35.7589 35.0256 35.6362 35.0585C35.3729 35.129 35.1096 35.1993 34.8463 35.2694C34.4242 35.3819 34.0023 35.4947 33.5803 35.6076C33.0507 35.7493 32.5211 35.8908 31.9914 36.0323C30.9045 36.3226 29.8178 36.6138 28.7312 36.9052C28.5587 36.9515 28.3862 36.9977 28.2137 37.044C27.9568 37.1129 27.7 37.1818 27.4431 37.2507C26.9463 37.3839 26.4495 37.5172 25.9527 37.6503C25.7943 37.6928 25.6358 37.7353 25.4774 37.7778C25.0987 37.8794 24.72 37.9807 24.3412 38.0816C23.7439 38.2409 23.1469 38.4003 22.552 38.5685C22.3318 38.6307 22.1114 38.692 21.8909 38.7533C21.7463 38.7939 21.6022 38.836 21.4581 38.8782C20.4331 39.1624 19.5932 38.8958 18.5954 38.6235C18.4616 38.5874 18.3278 38.5515 18.1941 38.5156C17.8329 38.4185 17.4719 38.3207 17.111 38.2228C16.7305 38.1196 16.3497 38.0172 15.969 37.9147C15.4158 37.7658 14.8626 37.6166 14.3096 37.4671C13.3273 37.2017 12.3446 36.9376 11.3617 36.6744C11.2913 36.6556 11.2208 36.6367 11.1482 36.6173C11.0781 36.5985 11.0081 36.5797 10.9359 36.5604C10.7956 36.5228 10.6552 36.4853 10.5149 36.4477C10.4462 36.4293 10.3775 36.4109 10.3066 36.3919C9.82875 36.2639 9.35095 36.1357 8.8732 36.0073C8.80725 35.9895 8.7413 35.9718 8.67336 35.9535C8.41351 35.8837 8.15366 35.8138 7.89381 35.744C7.15885 35.5464 6.4237 35.3496 5.68813 35.1543C5.32701 35.0583 4.96601 34.9619 4.60505 34.8654C4.44597 34.823 4.28683 34.7808 4.12762 34.7389C3.91579 34.6832 3.70418 34.6266 3.49262 34.5698C3.43339 34.5545 3.37415 34.5391 3.31312 34.5233C2.31085 34.2511 2.31085 34.2511 2.09871 33.901C1.97615 33.5914 1.98369 33.275 2.03549 32.9493C2.54795 31.9987 3.65716 32.4386 4.48848 32.669Z" fill="#108059"/>
<path d="M4.17407 27.4062C5.15419 27.5845 5.15419 27.5845 5.54298 27.6808C5.67549 27.7134 5.67549 27.7134 5.81067 27.7467C5.90442 27.7701 5.99816 27.7934 6.09475 27.8175C6.24657 27.855 6.24657 27.855 6.40145 27.8933C6.67659 27.9613 6.95164 28.0296 7.22668 28.098C7.45748 28.1554 7.68833 28.2126 7.91918 28.2698C8.46443 28.4049 9.00962 28.5403 9.55477 28.6758C10.1145 28.815 10.6743 28.9538 11.2341 29.0923C11.7172 29.2119 12.2003 29.3317 12.6834 29.4517C12.9708 29.5231 13.2582 29.5944 13.5457 29.6655C13.8163 29.7325 14.0869 29.7997 14.3574 29.8672C14.5021 29.9032 14.6469 29.9389 14.7918 29.9747C16.52 30.4068 16.52 30.4068 16.6874 30.5742C16.7223 30.757 16.7549 30.9402 16.7864 31.1236C16.8907 31.6849 17.0336 32.2694 17.4522 32.6841C17.5586 32.7917 17.5586 32.7917 17.5586 32.9501C17.6281 32.9834 17.6281 32.9834 17.6991 33.0173C17.8635 33.1024 18.0097 33.1973 18.1625 33.3016C18.7513 33.6719 19.3247 33.7448 20.0137 33.8213C20.0137 34.4747 20.0137 35.1281 20.0137 35.8013C19.3901 35.7122 19.3901 35.7122 19.1207 35.6401C19.0594 35.6238 18.998 35.6076 18.9348 35.5909C18.8693 35.5731 18.8037 35.5554 18.7361 35.5372C18.6652 35.5183 18.5943 35.4994 18.5213 35.48C18.2856 35.4171 18.05 35.3538 17.8144 35.2905C17.6464 35.2456 17.4783 35.2007 17.3102 35.1558C16.858 35.0351 16.4059 34.9139 15.9538 34.7926C15.4847 34.6669 15.0155 34.5414 14.5463 34.416C13.6883 34.1865 12.8304 33.9566 11.9726 33.7267C11.1938 33.5179 10.4149 33.3096 9.63595 33.1013C8.96284 32.9214 8.2898 32.7412 7.61677 32.561C7.40663 32.5047 7.19647 32.4485 6.98632 32.3923C6.659 32.3047 6.33171 32.217 6.00446 32.1292C5.88602 32.0975 5.76756 32.0657 5.64908 32.0341C5.48848 31.9912 5.32793 31.948 5.1674 31.9049C5.07816 31.881 4.98893 31.8571 4.897 31.8324C4.65385 31.7635 4.41384 31.6837 4.17407 31.6038C4.17407 30.2186 4.17407 28.8334 4.17407 27.4062Z" fill="#108059"/>
<path d="M36.8032 27.4062C36.8032 28.7914 36.8032 30.1766 36.8032 31.6038C35.8305 31.8817 34.8593 32.1587 33.8818 32.4183C33.809 32.4377 33.7362 32.457 33.6613 32.477C33.5862 32.4969 33.5112 32.5169 33.4339 32.5374C33.2727 32.5804 33.1116 32.6234 32.9505 32.6664C32.6102 32.7572 32.27 32.8479 31.9297 32.9385C31.037 33.1763 30.1444 33.4144 29.2518 33.6527C29.1625 33.6766 29.0731 33.7004 28.981 33.725C27.76 34.051 26.5395 34.3791 25.3197 34.7101C25.2503 34.729 25.1808 34.7478 25.1092 34.7672C24.4596 34.9434 23.8101 35.1198 23.1609 35.297C22.9292 35.3602 22.6974 35.4232 22.4656 35.4861C22.3595 35.515 22.2534 35.5439 22.1473 35.573C22.0044 35.6122 21.8614 35.651 21.7183 35.6898C21.5992 35.7223 21.5992 35.7223 21.4776 35.7555C21.2803 35.8013 21.2803 35.8013 21.0427 35.8013C21.0427 35.1479 21.0427 34.4945 21.0427 33.8213C21.5132 33.7429 21.5132 33.7429 21.9931 33.6629C22.5154 33.4868 22.8552 33.3147 23.2603 32.9501C23.3125 32.9501 23.3648 32.9501 23.4187 32.9501C23.4408 32.9037 23.463 32.8572 23.4858 32.8094C23.5706 32.6458 23.6653 32.5024 23.7701 32.3512C24.1075 31.8177 24.221 31.1943 24.2899 30.5742C24.9116 30.3 25.5446 30.1258 26.2033 29.9647C26.3143 29.9371 26.4253 29.9095 26.5363 29.8818C26.8355 29.8073 27.1349 29.7335 27.4343 29.6599C27.7488 29.5825 28.063 29.5044 28.3773 29.4265C28.9063 29.2953 29.4353 29.1646 29.9645 29.0341C30.6526 28.8645 31.3405 28.6938 32.0283 28.5229C32.5623 28.3902 33.0964 28.2579 33.6304 28.1256C33.8876 28.0619 34.1448 27.9981 34.402 27.9342C34.7045 27.8591 35.007 27.7842 35.3097 27.7096C35.4209 27.6821 35.5322 27.6545 35.6434 27.6269C35.795 27.5891 35.9467 27.5518 36.0984 27.5145C36.1834 27.4935 36.2684 27.4724 36.3559 27.4508C36.5656 27.4062 36.5656 27.4062 36.8032 27.4062Z" fill="#108059"/>
<path d="M19.2463 8.80679C19.6721 9.10386 19.8674 9.37434 19.9832 9.87745C20.0414 10.2352 20.0355 10.5931 20.034 10.9547C20.0343 11.0419 20.0346 11.129 20.0349 11.2188C20.0356 11.5054 20.0351 11.792 20.0346 12.0787C20.0347 12.2787 20.0348 12.4787 20.035 12.6787C20.0353 13.0973 20.0349 13.5159 20.0342 13.9345C20.0333 14.4171 20.0336 14.8997 20.0345 15.3824C20.0353 15.8484 20.0352 16.3144 20.0347 16.7804C20.0346 16.9779 20.0347 17.1755 20.0351 17.373C20.0355 17.6493 20.0349 17.9257 20.034 18.202C20.0343 18.2832 20.0347 18.3643 20.035 18.4479C20.0311 19.115 19.9789 19.6683 19.5034 20.169C19.1779 20.4634 18.8192 20.4782 18.3955 20.4694C17.9615 20.4047 17.6575 20.1762 17.4 19.8302C17.3208 19.6471 17.3208 19.6471 17.3208 19.4887C17.556 19.4103 17.7912 19.3319 18.0336 19.2511C18.1286 18.8327 18.1286 18.8327 17.9544 18.4591C17.6889 18.3455 17.5329 18.4018 17.2713 18.5036C16.8288 18.6453 16.4874 18.6232 16.0536 18.4591C15.657 18.2428 15.4711 17.9357 15.3408 17.5087C15.2818 17.0856 15.3379 16.7569 15.5784 16.3999C15.6725 16.3204 15.7683 16.2429 15.8655 16.1673C16.1068 15.9758 16.1293 15.9391 16.2071 15.6178C16.2087 15.5362 16.2103 15.4545 16.212 15.3703C16.0422 15.2131 15.9472 15.1342 15.7121 15.1278C15.4456 15.2332 15.2839 15.3924 15.0831 15.5937C14.9448 15.6871 14.9448 15.6871 14.7802 15.6735C14.551 15.5748 14.4509 15.4142 14.3112 15.212C14.183 14.8273 14.1493 14.3972 14.2973 14.0128C14.4133 13.8076 14.5406 13.6362 14.7072 13.4696C14.9448 13.4696 14.9448 13.4696 15.1428 13.6577C15.2082 13.7263 15.2735 13.7949 15.3408 13.8656C15.5968 14.0363 15.6775 14.0611 15.9744 14.024C16.1262 13.9382 16.1262 13.9382 16.212 13.7864C16.245 13.5936 16.245 13.5936 16.212 13.3904C16.0832 13.2428 16.0832 13.2428 15.9101 13.1231C15.5039 12.7903 15.3646 12.4954 15.3062 11.9698C15.3261 11.5023 15.5261 11.1396 15.8606 10.8214C16.1521 10.6345 16.3775 10.6059 16.7169 10.6036C16.8281 10.6019 16.8281 10.6019 16.9415 10.6002C17.1758 10.6196 17.3432 10.6861 17.5584 10.7768C17.7699 10.7715 17.7699 10.7715 17.9544 10.6976C18.1335 10.4801 18.1335 10.4801 18.1029 10.2621C18.0174 10.0177 17.9384 9.95574 17.7168 9.82646C17.5863 9.77011 17.4545 9.71635 17.3208 9.66807C17.4193 9.27394 17.5373 9.10132 17.8752 8.87608C18.3054 8.62394 18.7835 8.64961 19.2463 8.80679Z" fill="#FDC200"/>
<path d="M22.9702 8.79238C23.2879 8.98007 23.5069 9.16277 23.657 9.5098C23.657 9.56207 23.657 9.61435 23.657 9.6682C23.6131 9.68831 23.5692 9.70842 23.524 9.72915C23.4666 9.7564 23.4092 9.78366 23.3501 9.81175C23.2932 9.83839 23.2362 9.86504 23.1775 9.89249C22.9992 9.98457 22.9992 9.98457 22.865 10.2226C22.8716 10.4272 22.8716 10.4272 22.9442 10.6186C23.1623 10.8013 23.1623 10.8013 23.3798 10.7522C23.5263 10.712 23.6713 10.6666 23.8154 10.6186C24.3817 10.5636 24.7853 10.582 25.241 10.9354C25.5738 11.3645 25.705 11.7388 25.637 12.2817C25.4943 12.7416 25.2491 12.9893 24.879 13.2816C24.7455 13.3903 24.7455 13.3903 24.7163 13.6034C24.7747 13.8193 24.8159 13.9013 25.0034 14.0241C25.224 14.0731 25.3493 14.0527 25.5454 13.9406C25.8352 13.7471 25.8352 13.7471 26.033 13.4697C26.2808 13.4963 26.3498 13.549 26.523 13.737C26.7914 14.1258 26.7978 14.516 26.7458 14.9745C26.6377 15.2551 26.4839 15.474 26.2706 15.6873C26.0139 15.6781 25.9196 15.579 25.7211 15.4101C25.4868 15.2188 25.3815 15.1329 25.0826 15.1329C24.9 15.2383 24.9 15.2383 24.7658 15.3705C24.7679 15.6369 24.7679 15.6369 24.845 15.9249C25.0018 16.0329 25.1604 16.1382 25.3202 16.2417C25.5683 16.5772 25.6914 16.9317 25.6676 17.3492C25.5931 17.7374 25.413 18.0387 25.1519 18.3305C24.7502 18.5575 24.3565 18.6648 23.8983 18.5684C23.7492 18.5236 23.6011 18.475 23.4547 18.4221C23.2615 18.3629 23.2615 18.3629 23.0813 18.44C22.9264 18.5311 22.9264 18.5311 22.8799 18.7265C22.8649 18.9362 22.8649 19.0577 22.9442 19.2512C23.109 19.3413 23.109 19.3413 23.3056 19.3898C23.371 19.409 23.4365 19.4282 23.5039 19.448C23.5544 19.4614 23.6049 19.4749 23.657 19.4888C23.5585 19.8829 23.4405 20.0555 23.1026 20.2808C22.7417 20.4923 22.4023 20.48 21.9938 20.4392C21.5444 20.2865 21.2557 19.9924 21.0435 19.568C21.0354 19.4366 21.0324 19.3049 21.0318 19.1733C21.0312 19.0898 21.0307 19.0063 21.0301 18.9203C21.0298 18.7823 21.0298 18.7823 21.0295 18.6415C21.0289 18.5449 21.0284 18.4483 21.0279 18.3488C21.0263 18.028 21.0254 17.7072 21.0246 17.3863C21.0243 17.2759 21.024 17.1654 21.0236 17.0549C21.0221 16.5359 21.021 16.0169 21.0203 15.4979C21.0196 14.8989 21.0175 14.3 21.0143 13.701C21.0119 13.238 21.0107 12.775 21.0104 12.3119C21.0103 12.0354 21.0095 11.759 21.0076 11.4825C21.0054 11.1738 21.0057 10.8652 21.0062 10.5565C21.0052 10.4651 21.0042 10.3738 21.0032 10.2796C21.0064 9.78645 21.0263 9.48702 21.3603 9.11381C21.8181 8.70067 22.3798 8.55363 22.9702 8.79238Z" fill="#FEA331"/>
<path d="M17.8092 27.3938C17.8733 27.3936 17.9373 27.3933 18.0033 27.393C18.2145 27.3923 18.4256 27.3921 18.6368 27.3921C18.7841 27.3918 18.9313 27.3915 19.0786 27.3913C19.3871 27.3908 19.6956 27.3906 20.0041 27.3907C20.3987 27.3907 20.7932 27.3896 21.1878 27.3882C21.4919 27.3874 21.796 27.3872 22.1002 27.3872C22.2456 27.3871 22.391 27.3868 22.5365 27.3862C22.7402 27.3854 22.9439 27.3856 23.1477 27.3861C23.2073 27.3857 23.2669 27.3852 23.3283 27.3848C23.8081 27.3876 24.2194 27.4366 24.5971 27.7568C24.8427 28.053 24.8679 28.2926 24.8616 28.6731C24.8256 29.0072 24.6527 29.1847 24.414 29.4051C24.0431 29.6584 23.6799 29.635 23.2418 29.6357C23.1762 29.6361 23.1106 29.6365 23.0431 29.6369C22.8263 29.638 22.6096 29.6386 22.3929 29.639C22.2419 29.6395 22.091 29.6399 21.9401 29.6404C21.6236 29.6412 21.3072 29.6417 20.9908 29.6419C20.586 29.6424 20.1812 29.6443 19.7764 29.6465C19.4646 29.648 19.1528 29.6484 18.8411 29.6485C18.6919 29.6488 18.5427 29.6494 18.3935 29.6504C18.1844 29.6518 17.9754 29.6517 17.7663 29.6511C17.7051 29.6519 17.6439 29.6526 17.5809 29.6533C17.0939 29.6496 16.7222 29.5482 16.3407 29.2269C16.1206 28.956 16.1101 28.6969 16.1158 28.3551C16.1515 28.0233 16.3241 27.8452 16.5585 27.6231C16.9446 27.3657 17.358 27.3936 17.8092 27.3938Z" fill="#15AB76"/>
<path d="M17.6243 24.2093C17.693 24.2087 17.7617 24.2082 17.8325 24.2076C18.0587 24.2062 18.2848 24.2065 18.511 24.2069C18.6688 24.2066 18.8266 24.2062 18.9844 24.2057C19.3148 24.205 19.6452 24.2052 19.9756 24.2059C20.3983 24.2069 20.821 24.2053 21.2437 24.2029C21.5695 24.2015 21.8953 24.2015 22.2211 24.202C22.3769 24.202 22.5328 24.2015 22.6886 24.2005C22.9068 24.1993 23.1248 24.2002 23.343 24.2015C23.4069 24.2008 23.4708 24.2 23.5367 24.1992C23.9811 24.205 24.2414 24.3023 24.6071 24.5581C24.8244 24.8664 24.8877 25.1415 24.8729 25.5119C24.8147 25.8319 24.622 26.0442 24.4029 26.2721C24.1095 26.4366 23.8304 26.414 23.4993 26.4129C23.4274 26.4136 23.3555 26.4142 23.2814 26.4149C23.0437 26.4168 22.8061 26.4169 22.5684 26.4168C22.4031 26.4173 22.2377 26.4179 22.0724 26.4186C21.7258 26.4196 21.3792 26.4198 21.0326 26.4193C20.5887 26.4188 20.1449 26.4213 19.7011 26.4245C19.3596 26.4265 19.0181 26.4267 18.6766 26.4265C18.513 26.4266 18.3494 26.4274 18.1857 26.4288C17.9567 26.4305 17.7278 26.4297 17.4988 26.4284C17.3977 26.4299 17.3977 26.4299 17.2945 26.4315C16.8244 26.4249 16.6202 26.3213 16.2913 25.9836C16.1098 25.7444 16.0993 25.4966 16.1081 25.1991C16.1532 24.8971 16.2662 24.7251 16.4497 24.4789C16.8442 24.2245 17.1708 24.2067 17.6243 24.2093Z" fill="#108059"/>
<path d="M17.7168 30.6523C19.5463 30.6523 21.3758 30.6523 23.2607 30.6523C23.1454 31.8047 23.1454 31.8047 22.6379 32.3016C21.9745 32.8336 21.3161 32.8176 20.4937 32.8154C20.3957 32.8167 20.2978 32.818 20.1969 32.8193C19.4315 32.8197 18.7606 32.7119 18.192 32.1571C17.8021 31.6483 17.7848 31.3324 17.7168 30.6523Z" fill="#108059"/>
<path d="M10.9063 19.643C11.0944 19.7667 11.0944 19.7667 11.2231 19.9598C11.2676 20.232 11.2676 20.232 11.2231 20.5141C10.932 20.8586 10.5955 21.0724 10.2083 21.2913C10.1283 21.3396 10.1283 21.3396 10.0467 21.3889C9.65323 21.6129 9.37828 21.6635 8.9263 21.6229C8.7679 21.5437 8.7679 21.5437 8.68871 21.3853C8.61874 20.9973 8.61874 20.9973 8.68871 20.7517C8.8645 20.539 9.08639 20.4158 9.32229 20.2765C9.41306 20.2199 9.50381 20.1631 9.59454 20.1064C9.69173 20.0474 9.78908 19.9886 9.88658 19.9301C9.93294 19.9017 9.97931 19.8733 10.0271 19.8441C10.3325 19.6679 10.555 19.6011 10.9063 19.643Z" fill="#108059"/>
<path d="M14.3112 2.77964C14.5239 2.95543 14.6472 3.17733 14.7864 3.41322C14.843 3.504 14.8998 3.59474 14.9565 3.68547C15.0155 3.78266 15.0743 3.88001 15.1329 3.97751C15.1754 4.04706 15.1754 4.04706 15.2189 4.118C15.395 4.42343 15.4618 4.64589 15.4199 4.99719C15.2962 5.18529 15.2962 5.18529 15.1032 5.31398C14.8309 5.35853 14.8309 5.35853 14.5488 5.31398C14.2043 5.02288 13.9906 4.68648 13.7716 4.29926C13.7233 4.21924 13.7233 4.21924 13.674 4.13761C13.45 3.74416 13.3994 3.46921 13.44 3.01723C13.6052 2.6868 13.9861 2.68704 14.3112 2.77964Z" fill="#108059"/>
<path d="M30.5469 19.6468C30.8153 19.7664 31.0632 19.9153 31.3141 20.0676C31.3818 20.1071 31.4494 20.1467 31.5191 20.1874C32.0902 20.5262 32.0902 20.5262 32.2893 20.7556C32.3456 21.0296 32.3356 21.2965 32.2101 21.5476C31.9483 21.6784 31.7 21.6746 31.4181 21.6268C31.1249 21.4987 30.8607 21.3334 30.5914 21.1615C30.5194 21.1175 30.4474 21.0735 30.3732 21.0281C29.8469 20.7019 29.8469 20.7019 29.7549 20.518C29.7265 20.2112 29.71 20.031 29.8836 19.7706C30.1375 19.6035 30.2433 19.6091 30.5469 19.6468Z" fill="#108059"/>
<path d="M27.1511 2.75381C27.2996 2.77546 27.2996 2.77546 27.458 2.85466C27.5879 3.11456 27.5812 3.36613 27.5372 3.64664C27.4232 3.92403 27.2734 4.17374 27.1164 4.42873C27.0769 4.49631 27.0373 4.5639 26.9966 4.63353C26.7013 5.1279 26.7013 5.1279 26.4284 5.30981C25.9277 5.34558 25.9277 5.34558 25.6364 5.15141C25.5174 4.73987 25.5315 4.51466 25.7317 4.13514C25.8104 4.00263 25.8909 3.87115 25.973 3.74069C26.0129 3.67377 26.0528 3.60685 26.094 3.5379C26.5849 2.72675 26.5849 2.72675 27.1511 2.75381Z" fill="#108059"/>
<path d="M9.55974 7.52664C9.83712 7.64062 10.0868 7.79038 10.3418 7.94738C10.4094 7.98694 10.477 8.0265 10.5466 8.06726C11.041 8.36255 11.041 8.36255 11.2229 8.63541C11.2657 9.11434 11.2657 9.11434 11.1388 9.3383C10.8923 9.48138 10.718 9.49928 10.4309 9.50659C10.1548 9.39809 9.9101 9.24737 9.65874 9.0908C9.59146 9.05089 9.52418 9.01097 9.45487 8.96984C8.89108 8.6305 8.89108 8.6305 8.68856 8.39782C8.63222 8.12384 8.64223 7.85689 8.76776 7.60583C9.02766 7.47588 9.27923 7.48263 9.55974 7.52664Z" fill="#108059"/>
<path d="M32.0517 7.52572C32.2101 7.60492 32.2101 7.60492 32.2893 7.76332C32.3593 8.15132 32.3593 8.15132 32.2893 8.39691C32.1135 8.60967 31.8914 8.73248 31.6558 8.8721C31.5659 8.92965 31.4761 8.9873 31.3863 9.04503C31.2898 9.10479 31.1932 9.16429 31.0964 9.22354C31.0507 9.25258 31.005 9.28163 30.9579 9.31155C30.6078 9.51663 30.3821 9.52338 29.9926 9.42648C29.8391 9.33739 29.8391 9.33739 29.755 9.18889C29.7203 8.91665 29.7203 8.91664 29.755 8.6345C30.0145 8.30923 30.3728 8.11275 30.7252 7.90192C30.7826 7.86557 30.8401 7.82923 30.8993 7.79178C31.3061 7.54817 31.578 7.47814 32.0517 7.52572Z" fill="#108059"/>
<path d="M20.8053 1.03404C20.9811 1.14749 21.0262 1.21724 21.0869 1.41489C21.1537 1.7444 21.1367 2.08003 21.1369 2.41506C21.1379 2.48964 21.1389 2.56422 21.1399 2.64106C21.1413 3.33405 21.1413 3.33405 20.9637 3.64759C20.7583 3.85298 20.6083 3.82794 20.3279 3.83475C20.1178 3.79606 20.0616 3.73997 19.9341 3.56839C19.9034 3.33435 19.9034 3.33435 19.9025 3.05112C19.9022 2.94934 19.9019 2.84755 19.9016 2.74268C19.9021 2.68974 19.9026 2.63679 19.9031 2.58224C19.9044 2.42055 19.9031 2.25902 19.9016 2.09734C19.9019 1.99555 19.9022 1.89377 19.9025 1.7889C19.9028 1.69543 19.9031 1.60197 19.9034 1.50567C19.9341 1.27164 19.9341 1.27164 20.0453 1.12248C20.2779 0.959726 20.5339 0.992113 20.8053 1.03404Z" fill="#15AB76"/>
<path d="M32.0144 13.9892C32.1162 13.9889 32.218 13.9886 32.3229 13.9883C32.3758 13.9888 32.4288 13.9893 32.4833 13.9898C32.645 13.9911 32.8065 13.9898 32.9682 13.9883C33.07 13.9886 33.1718 13.9889 33.2767 13.9892C33.3701 13.9895 33.4636 13.9897 33.5599 13.99C33.7939 14.0208 33.7939 14.0208 33.9431 14.1319C34.0534 14.2896 34.0634 14.3839 34.0612 14.5752C34.0621 14.656 34.0621 14.656 34.0631 14.7385C34.0206 14.9452 33.9634 15.0032 33.7939 15.1295C33.5599 15.1603 33.5599 15.1603 33.2767 15.1611C33.1749 15.1614 33.0731 15.1617 32.9682 15.162C32.9153 15.1615 32.8623 15.161 32.8078 15.1605C32.6461 15.1592 32.4846 15.1605 32.3229 15.162C32.2211 15.1617 32.1193 15.1614 32.0144 15.1611C31.921 15.1608 31.8275 15.1606 31.7312 15.1603C31.4972 15.1295 31.4972 15.1295 31.348 15.0184C31.2378 14.8607 31.2277 14.7664 31.2299 14.5752C31.2293 14.5212 31.2287 14.4673 31.228 14.4118C31.3161 13.9834 31.6334 13.9903 32.0144 13.9892Z" fill="#15AB76"/>
<path d="M7.70048 13.9892C7.80226 13.9889 7.90405 13.9886 8.00892 13.9883C8.06187 13.9888 8.11481 13.9893 8.16936 13.9898C8.33105 13.9911 8.49258 13.9898 8.65426 13.9883C8.75605 13.9886 8.85783 13.9889 8.9627 13.9892C9.05617 13.9895 9.14963 13.9897 9.24593 13.99C9.47997 14.0208 9.47997 14.0208 9.62912 14.1319C9.73939 14.2896 9.74943 14.3839 9.74726 14.5752C9.74818 14.656 9.74818 14.656 9.74912 14.7385C9.70661 14.9452 9.64943 15.0032 9.47997 15.1295C9.24593 15.1603 9.24593 15.1603 8.9627 15.1611C8.86092 15.1614 8.75913 15.1617 8.65426 15.162C8.60131 15.1615 8.54837 15.161 8.49381 15.1605C8.33213 15.1592 8.1706 15.1605 8.00892 15.162C7.90713 15.1617 7.80535 15.1614 7.70048 15.1611C7.60701 15.1608 7.51355 15.1606 7.41725 15.1603C7.18321 15.1295 7.18321 15.1295 7.03406 15.0184C6.92379 14.8607 6.91375 14.7664 6.91592 14.5752C6.91531 14.5212 6.91469 14.4673 6.91406 14.4118C7.00217 13.9834 7.31942 13.9903 7.70048 13.9892Z" fill="#108059"/>
</svg>
