<svg width="20" height="20" viewBox="0 0 20 20" fill="none" xmlns="http://www.w3.org/2000/svg">
<path d="M10 19.999C15.5228 19.999 20 15.5219 20 9.99902C20 4.47618 15.5228 -0.000976562 10 -0.000976562C4.47715 -0.000976562 0 4.47618 0 9.99902C0 15.5219 4.47715 19.999 10 19.999Z" fill="#007AB9"/>
<path d="M15.9749 10.8038V14.9265H13.5846V11.0801C13.5846 10.1142 13.2395 9.45469 12.3741 9.45469C11.7136 9.45469 11.3213 9.89873 11.148 10.3287C11.0851 10.4824 11.0688 10.6957 11.0688 10.9112V14.9264H8.67838C8.67838 14.9264 8.71047 8.41169 8.67838 7.73734H11.069V8.75609C11.0642 8.76411 11.0574 8.77196 11.0532 8.77962H11.069V8.75609C11.3867 8.2673 11.9532 7.56853 13.2233 7.56853C14.7959 7.56853 15.9749 8.59601 15.9749 10.8038ZM6.17776 4.27197C5.36008 4.27197 4.82513 4.80871 4.82513 5.51391C4.82513 6.20413 5.34458 6.75637 6.14639 6.75637H6.1619C6.99561 6.75637 7.51399 6.20413 7.51399 5.51391C7.49813 4.80871 6.99561 4.27197 6.17776 4.27197ZM4.9672 14.9265H7.35677V7.73734H4.9672V14.9265Z" fill="#F1F2F2"/>
</svg>
