<svg width="20" height="20" viewBox="0 0 20 20" fill="none" xmlns="http://www.w3.org/2000/svg">
<g clipPath="url(#clip0_63_65)">
<path d="M10 19.375C15.1777 19.375 19.375 15.1777 19.375 10C19.375 4.82233 15.1777 0.625 10 0.625C4.82233 0.625 0.625 4.82233 0.625 10C0.625 15.1777 4.82233 19.375 10 19.375Z" fill="white"/>
<path d="M10 0.625C4.8125 0.625 0.625 4.8125 0.625 10C0.625 13.6875 2.8125 16.9375 5.9375 18.4375C5.9375 17.625 6 16.9375 6.125 16.375L7.3125 11.375C7.25 11.125 7 10.625 7 9.875C7 8.3125 7.9375 7.125 9.125 7.125C10.0625 7.125 10.6875 7.8125 10.6875 8.875C10.6875 9.5 10.4375 10.1875 10.1875 11C10.0625 11.4375 9.9375 11.875 9.8125 12.3125C9.75 12.6875 9.8125 13 10 13.3125C10.25 13.625 10.5625 13.75 11 13.75C12.5 13.75 13.6875 11.75 13.6875 9.0625C13.6875 7.0625 12.3125 5.8125 10.125 5.8125C7.3125 5.8125 5.8125 7.9375 5.8125 10C5.8125 10.6875 6 11.1875 6.375 11.625C6.5625 11.875 6.6875 12.0625 6.5625 12.4375L6.375 13.1875C6.3125 13.375 6.1875 13.5625 6.0625 13.625C5.875 13.6875 5.6875 13.6875 5.5 13.625C4.1875 13.0625 3.375 11.625 3.375 9.75C3.375 6.6875 6 3.5625 10.375 3.5625C14.3125 3.5625 16.625 6.4375 16.625 9.25C16.625 13.125 14.375 16 11.25 16C10.4375 16 9.625 15.6875 9.125 15.1875C8.9375 15.875 8.6875 16.875 8.625 17.1875C8.4375 17.9375 8 18.6875 7.6875 19.1875C8.4375 19.375 9.1875 19.5 10 19.5C15.1875 19.5 19.375 15.3125 19.375 10.125C19.375 4.9375 15.1875 0.625 10 0.625Z" fill="#EE1B22"/>
</g>
<defs>
<clipPath id="clip0_63_65">
<rect width="20" height="20" fill="white"/>
</clipPath>
</defs>
</svg>
