<svg width="20" height="20" viewBox="0 0 20 20" fill="none" xmlns="http://www.w3.org/2000/svg">
<g clipPath="url(#clip0_63_68)">
<path d="M0 9.58332C0 5.0657 0 2.80688 1.40344 1.40344C2.80688 0 5.0657 0 9.58332 0H10.4166C14.9343 0 17.1931 0 18.5965 1.40344C20 2.80688 20 5.0657 20 9.58332V10.4166C20 14.9343 20 17.1931 18.5965 18.5965C17.1931 20 14.9343 20 10.4167 20H9.58336C5.06574 20 2.80691 20 1.40348 18.5966C0 17.1931 0 14.9343 0 10.4167L0 9.58332Z" fill="#2787F5"/>
<path fillRule="evenodd" clipRule="evenodd" d="M5.4168 6.25H3.95813C3.54137 6.25 3.45801 6.44617 3.45801 6.66242C3.45801 7.04871 3.95254 8.96449 5.76059 11.4983C6.96598 13.2287 8.66422 14.1666 10.2096 14.1666C11.1368 14.1666 11.2515 13.9583 11.2515 13.5995V12.2916C11.2515 11.875 11.3393 11.7918 11.6329 11.7918C11.8493 11.7918 12.2202 11.9 13.0855 12.7343C14.0746 13.723 14.2376 14.1666 14.7939 14.1666H16.2526C16.6694 14.1666 16.8777 13.9583 16.7575 13.5472C16.626 13.1374 16.1538 12.5429 15.5272 11.8382C15.1872 11.4365 14.6772 11.0039 14.5227 10.7876C14.3064 10.5095 14.3682 10.3859 14.5227 10.1387C14.5227 10.1387 16.2999 7.63578 16.4853 6.78609C16.578 6.47707 16.4853 6.25 16.0442 6.25H14.5855C14.2146 6.25 14.0436 6.44617 13.9509 6.66242C13.9509 6.66242 13.2091 8.47008 12.1583 9.6443C11.8183 9.98418 11.6638 10.0923 11.4783 10.0923C11.3856 10.0923 11.2514 9.98418 11.2514 9.67523V6.78609C11.2514 6.41527 11.1438 6.25 10.8346 6.25H8.54246C8.3107 6.25 8.17129 6.42207 8.17129 6.5852C8.17129 6.93668 8.69672 7.01777 8.75086 8.00656V10.1541C8.75086 10.625 8.66578 10.7104 8.48035 10.7104C7.98586 10.7104 6.78297 8.89461 6.06957 6.81691C5.92984 6.41313 5.78961 6.25 5.4168 6.25Z" fill="white"/>
</g>
<defs>
<clipPath id="clip0_63_68">
<rect width="20" height="20" fill="white"/>
</clipPath>
</defs>
</svg>
